<svg width="2000" height="1400" xmlns="http://www.w3.org/2000/svg"><path fill="transparent" d="M0 0h2000v1400H0z"/><path d="M0 140h0c48.963.065 97.925.13 140-5s77.262-15.456 120-12c42.738 3.456 93.028 20.693 140 30 46.972 9.307 90.626 10.684 138 3 47.374-7.684 98.47-24.427 141-21 42.53 3.427 76.497 27.026 123 30s105.541-14.678 147-18c41.459-3.322 65.338 7.684 101-2 35.662-9.684 83.106-40.058 137-37 53.894 3.058 114.239 39.55 157 48 42.761 8.45 67.939-11.14 110-10 42.061 1.14 101.005 23.013 151 23 49.995-.013 91.04-21.91 133-30 41.96-8.09 84.835-2.37 132 5 47.165 7.37 98.618 16.391 121 16 22.382-.391 15.69-10.196 49-20" fill="none" stroke="#b5adf8" stroke-width="4" stroke-linecap="round"/><path d="M0 280h0c41.09-10.195 82.178-20.39 126-26 43.822-5.61 90.375-6.632 136 8s90.32 44.92 130 45c39.68.08 74.343-30.05 126-32 51.657-1.95 120.308 24.28 164 35 43.692 10.72 62.425 5.93 104-9s105.992-40.001 153-51c47.008-10.999 76.608-7.926 114 6 37.392 13.926 82.578 38.706 133 53 50.422 14.294 106.082 18.1 156 5 49.918-13.1 94.095-43.11 134-53s75.538.336 119 3 94.753-2.234 135 4 69.451 23.602 120 24c50.549.398 122.443-16.172 151-21 28.557-4.828 13.779 2.086 39 9" fill="none" stroke="#7467f3" stroke-width="4" stroke-linecap="round"/><path d="M0 420h0c38.355-11.832 76.71-23.664 127-21 50.29 2.664 112.518 19.824 156 33 43.482 13.176 68.22 22.37 108 14 39.78-8.37 94.603-34.302 145-42 50.397-7.698 96.37 2.84 135 2 38.63-.84 69.918-13.057 113-7 43.082 6.057 97.958 30.387 145 27 47.042-3.387 86.248-34.49 132-35 45.752-.51 98.048 29.572 142 45s79.558 16.203 120 7c40.442-9.203 85.72-28.385 132-25 46.28 3.385 93.564 29.338 145 34 51.436 4.662 107.024-11.967 149-18 41.976-6.033 70.34-1.47 120-11s120.617-33.151 146-36c25.383-2.849 5.191 15.076 25 33" fill="none" stroke="#4836ef" stroke-width="4" stroke-linecap="round"/><path d="M0 560h0c36.236-8.969 72.471-17.938 120-19 47.529-1.062 106.35 5.782 157 15 50.65 9.218 93.127 20.81 135 19 41.873-1.81 83.143-17.022 128-27 44.857-9.978 93.302-14.72 136-6 42.698 8.72 79.65 30.904 118 33 38.35 2.096 78.101-15.896 125-27s100.947-15.32 150-13c49.053 2.32 93.111 11.175 134 23 40.889 11.825 78.608 26.62 120 17 41.392-9.62 86.458-43.656 130-43 43.542.656 85.56 36.005 133 37 47.44.995 100.304-32.362 142-35 41.696-2.638 72.226 25.444 125 26 52.774.556 127.793-26.412 156-31 28.207-4.588 9.604 13.206 31 31" fill="none" stroke="#bab3f9" stroke-width="4" stroke-linecap="round"/><path d="M0 700h0c39.468-10.333 78.936-20.665 127-20 48.064.665 104.723 12.33 145 8s64.173-24.651 112-17 119.587 43.276 165 44c45.413.724 64.48-33.452 103-48 38.52-14.548 96.493-9.469 146 8 49.507 17.469 90.55 47.326 138 52 47.45 4.674 101.31-15.836 144-31s74.213-24.982 119-29c44.787-4.018 102.839-2.236 146-1 43.161 1.236 71.431 1.927 117 16s108.437 41.528 153 44c44.563 2.472 70.821-20.038 107-20 36.179.038 82.279 22.626 136 28 53.721 5.374 115.063-6.464 140-15 24.937-8.536 13.468-13.768 42-19" fill="none" stroke="#b0a9f8" stroke-width="4" stroke-linecap="round"/><path d="M0 840h0c43.108-8.754 86.215-17.507 131-13 44.785 4.507 91.246 22.276 138 15 46.754-7.276 93.801-39.597 138-32 44.199 7.597 85.55 55.11 127 63 41.45 7.89 82.998-23.846 128-31 45.002-7.154 93.456 10.273 142 6s97.176-30.245 142-34c44.824-3.755 85.839 14.708 129 27s88.468 18.414 135 21c46.532 2.586 94.289 1.634 138-11s83.376-36.952 124-35c40.624 1.952 82.206 30.175 124 34 41.794 3.825 83.8-16.748 130-14 46.2 2.748 96.592 28.817 149 27 52.408-1.817 106.83-31.52 128-40s9.085 4.26 37 17" fill="none" stroke="#5c4cf0" stroke-width="4" stroke-linecap="round"/><path d="M0 980h0c51.377-15.525 102.755-31.05 146-34 43.245-2.95 78.359 6.672 122 15 43.641 8.328 95.81 15.36 142 27s86.399 27.886 125 17 75.594-48.904 124-54c48.406-5.096 108.225 22.73 156 28 47.775 5.27 83.507-12.015 126-8 42.493 4.015 91.748 29.332 132 23 40.252-6.332 71.5-44.311 116-41s102.251 47.913 146 56c43.749 8.087 73.495-20.342 118-27 44.505-6.658 103.768 8.453 149 19s76.433 16.528 115 7c38.567-9.528 84.499-34.565 136-46 51.501-11.435 108.572-9.267 134-4 25.428 5.267 19.214 13.634 53 22" fill="none" stroke="#beb8f9" stroke-width="4" stroke-linecap="round"/><path d="M0 1120h0c53.667-1.065 107.334-2.13 149-7s71.331-13.545 116-13c44.669.545 104.341 10.311 150 19 45.659 8.689 77.305 16.3 118 23 40.695 6.7 90.44 12.49 133 6s77.932-25.26 120-29c42.068-3.74 90.83 7.548 134 12s80.748 2.067 131-5c50.252-7.067 113.178-18.818 165-17 51.822 1.818 92.54 17.204 131 26 38.46 8.796 74.663 11.002 115 13 40.337 1.998 84.809 3.79 131-1s94.103-16.16 143-14c48.897 2.16 98.78 17.85 146 18 47.22.15 91.777-15.243 111-23s13.111-7.878 47-8" fill="none" stroke="#8a7ff4" stroke-width="4" stroke-linecap="round"/><path d="M0 1260h0c35.473 3.244 70.945 6.488 120 8 49.055 1.512 111.692 1.293 156 3 44.308 1.707 70.285 5.34 114 9s105.167 7.348 158 10 97.046 4.267 134-6c36.954-10.267 66.65-32.415 108-34 41.35-1.585 94.356 17.395 147 26 52.644 8.605 104.925 6.837 145-7s67.944-39.743 114-35c46.056 4.743 110.3 40.133 153 54 42.7 13.867 63.854 6.21 106-11s105.285-43.973 157-50c51.715-6.027 92.006 8.684 129 12 36.994 3.316 70.69-4.761 121-5 50.31-.239 117.231 7.36 143 13 25.769 5.64 10.384 9.32 35 13" fill="none" stroke="#5242f0" stroke-width="4" stroke-linecap="round"/></svg>